# xmcd
#
# Track frame offsets: 
#        150
#        22304
#        41029
#        59241
#        77897
#        95422
#        114126
#        138059
#        154135
#        170591
#        192302
#        206873
#
# Disc length: 3099 seconds
#
# Revision: 0
# Processed by: cddbd v1.5.2PL0 Copyright (c) Steve Scherf et al.
# Submitted via: ExactAudioCopy v1.0b1
#
DISCID=ac0c190c
DTITLE=Pyhimys - Medium
DYEAR=2011
DGENRE=Hip-Hop
TTITLE0=0
TTITLE1=Positivistinen junamatka
TTITLE2=Ei mennä enää koskaan landelle
TTITLE3=Kaunotar ja Sirviö
TTITLE4=Sami tosi isot imas
TTITLE5=Bättre folk
TTITLE6=Medium
TTITLE7=WTF?
TTITLE8=Vatos Logos
TTITLE9=Odotellessammekin
TTITLE10=Tiskaan tiskaan
TTITLE11=Nyt
EXTD=
EXTT0=
EXTT1=
EXTT2=
EXTT3=
EXTT4=
EXTT5=
EXTT6=
EXTT7=
EXTT8=
EXTT9=
EXTT10=
EXTT11=
PLAYORDER=
